<svg xmlns="http://www.w3.org/2000/svg" xmlns:xlink="http://www.w3.org/1999/xlink" width="1920" zoomAndPan="magnify" viewBox="0 0 1440 809.999993" height="1080" preserveAspectRatio="xMidYMid meet" version="1.0"><defs><filter x="0%" y="0%" width="100%" height="100%" id="60e8b8b89a"><feColorMatrix values="0 0 0 0 1 0 0 0 0 1 0 0 0 0 1 0 0 0 1 0" color-interpolation-filters="sRGB"/></filter><mask id="8defb847e1"><g filter="url(#60e8b8b89a)"><rect x="-144" width="1728" fill="#000000" y="-80.999999" height="971.999992" fill-opacity="0.6863"/></g></mask><clipPath id="904a5e0330"><path d="M 0.480469 0 L 1440 0 L 1440 504 L 0.480469 504 Z M 0.480469 0 " clip-rule="nonzero"/></clipPath><clipPath id="5763ffd2e1"><rect x="0" width="1440" y="0" height="509"/></clipPath></defs><g mask="url(#8defb847e1)"><g transform="matrix(1, 0, 0, 1, -0.000000000000000056, 0.000000000000039746)"><g clip-path="url(#5763ffd2e1)"><g clip-path="url(#904a5e0330)"><path fill="#c393e0" d="M 1439.324219 358.34375 L 1439.324219 -6.757812 L 0.675781 -6.757812 C 44.851562 292.097656 432.125 -22.214844 441.695312 158.863281 C 452.738281 367.179688 662.570312 350.984375 720 284.734375 C 782.582031 211.863281 881.242188 151.503906 1018.921875 350.984375 C 1199.304688 613.035156 1381.894531 483.480469 1439.324219 358.34375 Z M 1439.324219 358.34375 " fill-opacity="1" fill-rule="nonzero"/></g></g></g></g></svg>